<?xml version="1.0" encoding="UTF-8"?>
<svg id="Capa_2" data-name="Capa 2" xmlns="http://www.w3.org/2000/svg" viewBox="0 0 327.07 148.88">
  <defs>
    <style>
      .cls-1 {
        fill: #0e1745;
      }

      .cls-2 {
        fill: #f540ff;
      }
    </style>
  </defs>
  <g id="Layer_1" data-name="Layer 1">
    <g>
      <path class="cls-1" d="M35.22,91.1c-10.45,0-18.54-2.18-24.27-6.53-5.72-4.36-9.38-11.26-10.95-20.72h18.05v1.62c0,3.32,1.31,6.14,3.92,8.46,2.61,2.32,7.03,3.48,13.25,3.48,5.48,0,9.71-.91,12.7-2.74,2.99-1.82,4.48-4.4,4.48-7.72v-1.49c0-2.41-.87-4.33-2.61-5.79-1.74-1.45-4.65-2.59-8.71-3.42l-18.05-3.73c-7.88-1.74-13.65-4.48-17.3-8.21C2.07,40.57.25,35.43.25,28.87.25,20.49,3.24,14.04,9.21,9.52c5.97-4.52,14.52-6.78,25.64-6.78,10.37,0,18.36,2.18,23.96,6.53s9.19,11.26,10.77,20.72h-17.8v-1.62c0-3.24-1.29-6.04-3.86-8.4-2.57-2.36-6.93-3.55-13.07-3.55-5.39,0-9.54.89-12.45,2.68-2.91,1.79-4.36,4.38-4.36,7.78v1.49c0,2.41.85,4.34,2.55,5.79,1.7,1.45,4.54,2.59,8.53,3.42l18.05,3.73c7.97,1.74,13.79,4.46,17.49,8.15,3.69,3.69,5.54,8.82,5.54,15.37,0,8.46-3.01,14.96-9.02,19.48-6.02,4.52-14.67,6.78-25.95,6.78Z"/>
      <path class="cls-1" d="M74.3,89.86V0h17.18v19.79c0,1.91-.02,3.96-.06,6.16-.04,2.2-.15,4.92-.31,8.15h2.37c1.41-3.9,3.59-6.86,6.53-8.9,2.94-2.03,6.82-3.05,11.64-3.05,6.89,0,12.11,2.07,15.68,6.22,3.57,4.15,5.35,10.21,5.35,18.17v43.31h-17.3v-40.08c0-4.98-.95-8.63-2.86-10.95-1.91-2.32-4.94-3.48-9.09-3.48s-7.07,1.16-9.02,3.48c-1.95,2.32-2.92,5.97-2.92,10.95v40.08h-17.18Z"/>
      <path class="cls-1" d="M141.88,89.86v-54.14h-7.97v-12.32h25.27v66.46h-17.3ZM140.88,14.31V.25h18.79v14.06h-18.79Z"/>
      <path class="cls-1" d="M161.29,35.72v-12.32h48.04v12.32h-48.04ZM173.24,10.7c0-7.14,3.57-10.7,10.7-10.7h25.39v11.45h-18.79v78.41h-17.3V10.7Z"/>
      <path class="cls-1" d="M205.23,35.72v-12.32h47.67v12.32h-47.67ZM228.5,89.86c-7.14,0-10.7-3.57-10.7-10.7V4.48h17.3v73.06h17.8v12.32h-24.39Z"/>
      <path class="cls-1" d="M264.35,110.27l10.21-24.52.37,4.85-26.26-67.21h17.55l15.31,42.81h2.49l15.31-42.81h16.8l-34.1,86.87h-17.67Z"/>
    </g>
    <g>
      <path class="cls-2" d="M120.62,143.91l3.52-4.16c2.58,2.32,5.93,3.87,9.49,3.87,3.96,0,6.05-1.74,6.05-4.12,0-3.03-2.33-3.84-5.65-5.24l-4.68-2.03c-3.57-1.39-7.26-4.03-7.26-9.02,0-5.41,4.87-9.59,11.82-9.59,4.17,0,8.11,1.62,10.89,4.33l-3.09,3.84c-2.31-1.84-4.67-2.91-8.09-2.91-3.23,0-5.41,1.45-5.41,3.97,0,2.65,2.72,3.62,5.8,4.8l4.46,1.94c4.33,1.67,7.39,4.25,7.39,9.16,0,5.53-4.66,10.13-12.61,10.13-4.79,0-9.31-1.82-12.65-4.97Z"/>
      <path class="cls-2" d="M154.77,137.98v-10.52h-6.84v-4.49l7.09-.28.78-8h4.98v8h11.62v4.77h-11.62v10.49c0,4.22,1.59,6.12,5.9,6.12,2.13,0,3.89-.43,5.56-1.03l1.17,4.38c-2.29.76-4.87,1.45-8.18,1.45-7.81,0-10.47-4.39-10.47-10.9Z"/>
      <path class="cls-2" d="M175.81,138.53v-15.83h6.02v15.05c0,4.07,1.28,5.97,4.78,5.97,2.4,0,4.13-1.01,6.41-3.77v-17.25h6.02v25.56h-4.95l-.46-4.06h-.21c-2.42,2.79-5.25,4.68-9.05,4.68-5.93,0-8.55-3.77-8.55-10.35Z"/>
      <path class="cls-2" d="M202.3,135.51c0-8.34,5.44-13.43,11.24-13.43,2.92,0,5.05,1.1,7.04,3h.14l-.28-4.31v-9.25h6.02v36.74h-4.91l-.46-2.99h-.18c-1.99,2-4.83,3.61-7.7,3.61-6.58,0-10.91-4.94-10.91-13.37ZM220.44,140.84v-11.48c-1.83-1.69-3.6-2.3-5.44-2.3-3.57,0-6.53,3.05-6.53,8.38s2.33,8.46,6.2,8.46c2.12,0,4-.94,5.78-3.06Z"/>
      <path class="cls-2" d="M242.26,127.46h-11.04v-4.77h17.06v25.56h-6.02v-20.79ZM240.6,114.02c0-2.4,1.8-4.06,4.27-4.06s4.27,1.66,4.27,4.06-1.8,4.02-4.27,4.02-4.27-1.59-4.27-4.02Z"/>
      <path class="cls-2" d="M256.94,135.51c0-8.54,6.09-13.43,12.83-13.43s12.83,4.9,12.83,13.43-6.09,13.37-12.83,13.37-12.83-4.9-12.83-13.37ZM276.44,135.51c0-5.14-2.5-8.53-6.67-8.53s-6.67,3.39-6.67,8.53,2.5,8.46,6.67,8.46,6.67-3.35,6.67-8.46Z"/>
    </g>
    <path class="cls-1" d="M322.19,37.63c-.92,0-1.75-.22-2.5-.66-.74-.44-1.33-1.05-1.76-1.82-.43-.77-.64-1.64-.64-2.6s.21-1.85.64-2.62,1.01-1.38,1.76-1.82c.74-.44,1.58-.66,2.5-.66s1.77.22,2.5.66c.73.44,1.31,1.05,1.74,1.82.43.77.64,1.64.64,2.62s-.21,1.83-.64,2.6c-.43.77-1.01,1.38-1.74,1.82-.73.44-1.56.66-2.5.66ZM322.19,36.68c1.17,0,2.11-.37,2.81-1.1s1.06-1.71,1.06-2.93v-.24c0-1.22-.35-2.2-1.06-2.92-.7-.72-1.64-1.09-2.81-1.09s-2.11.36-2.82,1.09c-.7.72-1.06,1.7-1.06,2.92v.24c0,1.22.35,2.2,1.06,2.93.7.73,1.64,1.1,2.82,1.1ZM320.19,35.18v-5.27h2.15c.64,0,1.14.15,1.49.45.35.3.52.73.52,1.28s-.17.93-.51,1.21c-.34.28-.82.42-1.44.42h-.77v1.9h-1.44ZM321.62,32.34h.71c.4,0,.59-.18.59-.55v-.26c0-.38-.2-.57-.59-.57h-.71v1.38ZM322.92,35.18l-.85-2.29,1.36-.18,1.05,2.47h-1.56Z"/>
  </g>
</svg>