<?xml version="1.0" encoding="UTF-8"?>
<svg id="Capa_2" data-name="Capa 2" xmlns="http://www.w3.org/2000/svg" viewBox="0 0 332.3 186.63">
  <defs>
    <style>
      .cls-1, .cls-2 {
        fill: #0e1745;
      }

      .cls-3 {
        fill: #f540ff;
      }

      .cls-2 {
        font-family: MozillaText-Bold, 'Mozilla Text';
        font-size: 124.46px;
        font-weight: 700;
      }

      .cls-4 {
        letter-spacing: -.1em;
      }

      .cls-5 {
        letter-spacing: -.07em;
      }
    </style>
  </defs>
  <g id="Layer_1" data-name="Layer 1">
    <text class="cls-2" transform="translate(0 105.17)"><tspan class="cls-5" x="0" y="0">Shift</tspan><tspan class="cls-4" x="252.65" y="0">y</tspan></text>
    <g>
      <path class="cls-3" d="M125.85,159.22l3.52-4.16c2.58,2.32,5.93,3.87,9.49,3.87,3.96,0,6.05-1.74,6.05-4.12,0-3.03-2.33-3.84-5.65-5.24l-4.68-2.03c-3.57-1.39-7.26-4.03-7.26-9.02,0-5.41,4.87-9.59,11.82-9.59,4.17,0,8.11,1.62,10.89,4.33l-3.09,3.84c-2.31-1.84-4.67-2.91-8.09-2.91-3.23,0-5.41,1.45-5.41,3.97,0,2.65,2.72,3.62,5.8,4.8l4.46,1.94c4.33,1.67,7.39,4.25,7.39,9.16,0,5.53-4.66,10.13-12.61,10.13-4.79,0-9.31-1.82-12.65-4.97Z"/>
      <path class="cls-3" d="M160,153.29v-10.52h-6.84v-4.49l7.09-.28.78-8h4.98v8h11.62v4.77h-11.62v10.49c0,4.22,1.59,6.12,5.9,6.12,2.13,0,3.89-.43,5.56-1.03l1.17,4.38c-2.29.76-4.87,1.45-8.18,1.45-7.81,0-10.47-4.39-10.47-10.9Z"/>
      <path class="cls-3" d="M181.04,153.84v-15.83h6.02v15.05c0,4.07,1.28,5.97,4.78,5.97,2.4,0,4.13-1.01,6.41-3.77v-17.25h6.02v25.56h-4.95l-.46-4.06h-.21c-2.42,2.79-5.25,4.68-9.05,4.68-5.93,0-8.55-3.77-8.55-10.35Z"/>
      <path class="cls-3" d="M207.53,150.82c0-8.34,5.44-13.43,11.24-13.43,2.92,0,5.05,1.1,7.04,3h.14l-.28-4.31v-9.25h6.02v36.74h-4.91l-.46-2.99h-.18c-1.99,2-4.83,3.61-7.7,3.61-6.58,0-10.91-4.94-10.91-13.37ZM225.67,156.15v-11.48c-1.83-1.69-3.6-2.3-5.44-2.3-3.57,0-6.53,3.05-6.53,8.38s2.33,8.46,6.2,8.46c2.12,0,4-.94,5.78-3.06Z"/>
      <path class="cls-3" d="M247.49,142.77h-11.04v-4.77h17.06v25.56h-6.02v-20.79ZM245.83,129.33c0-2.4,1.8-4.06,4.27-4.06s4.27,1.66,4.27,4.06-1.8,4.02-4.27,4.02-4.27-1.59-4.27-4.02Z"/>
      <path class="cls-3" d="M262.17,150.82c0-8.54,6.09-13.43,12.83-13.43s12.83,4.9,12.83,13.43-6.09,13.37-12.83,13.37-12.83-4.9-12.83-13.37ZM281.67,150.82c0-5.14-2.5-8.53-6.67-8.53s-6.67,3.39-6.67,8.53,2.5,8.46,6.67,8.46,6.67-3.35,6.67-8.46Z"/>
    </g>
    <path class="cls-1" d="M327.42,52.94c-.92,0-1.75-.22-2.5-.66-.74-.44-1.33-1.05-1.76-1.82-.43-.77-.64-1.64-.64-2.6s.21-1.85.64-2.62,1.01-1.38,1.76-1.82c.74-.44,1.58-.66,2.5-.66s1.77.22,2.5.66c.73.44,1.31,1.05,1.74,1.82.43.77.64,1.64.64,2.62s-.21,1.83-.64,2.6c-.43.77-1.01,1.38-1.74,1.82-.73.44-1.56.66-2.5.66ZM327.42,51.99c1.17,0,2.11-.37,2.81-1.1s1.06-1.71,1.06-2.93v-.24c0-1.22-.35-2.2-1.06-2.92-.7-.72-1.64-1.09-2.81-1.09s-2.11.36-2.82,1.09c-.7.72-1.06,1.7-1.06,2.92v.24c0,1.22.35,2.2,1.06,2.93.7.73,1.64,1.1,2.82,1.1ZM325.42,50.49v-5.27h2.15c.64,0,1.14.15,1.49.45.35.3.52.73.52,1.28s-.17.93-.51,1.21c-.34.28-.82.42-1.44.42h-.77v1.9h-1.44ZM326.84,47.65h.71c.4,0,.59-.18.59-.55v-.26c0-.38-.2-.57-.59-.57h-.71v1.38ZM328.15,50.49l-.85-2.29,1.36-.18,1.05,2.47h-1.56Z"/>
  </g>
</svg>